<svg width="167" height="161" viewBox="0 0 167 161" fill="none" xmlns="http://www.w3.org/2000/svg">
<path fill-rule="evenodd" clip-rule="evenodd" d="M34.0317 107.333C46.5061 127.381 60.5395 137.404 76.1324 137.404V161L71.4544 144.483C57.421 142.123 41.0481 137.404 27.0147 111.449L34.0317 107.333ZM132.968 107.333L139.985 111.449C125.952 137.404 109.579 142.123 95.5456 144.483L90.8676 161V137.404C106.461 137.404 120.494 127.381 132.968 107.333ZM83.5 14.6364L103.147 53.6667H93.3235L83.5 117.091L73.6765 53.6667H63.8529L83.5 14.6364ZM63.8529 58.5455L68.7647 82.9394H34.3824L50.543 87.6221C29.6754 93.8225 12.8276 102.019 0 112.212C7.50346 101.778 16.0384 92.3681 25.605 83.9835L4.91176 63.4242L9.15651 65.5324C19.4653 70.6522 27.5 74.6425 33.2605 77.5034L33.3858 77.5659C42.6714 70.3614 52.827 64.0214 63.8529 58.5455ZM103.147 58.5455C129.343 71.5557 150.628 89.4443 167 112.212C154.172 102.019 137.325 93.8225 116.457 87.6221L132.618 82.9394H98.2353L103.147 58.5455ZM68.7647 0V29.2727L54.0294 53.6667H39.2941L54.0294 29.2727L68.7647 0ZM98.2353 0L112.971 29.2727L127.706 53.6667H112.971L98.2353 29.2727V0Z" fill="#1F2326"/>
</svg>
